<svg xmlns="http://www.w3.org/2000/svg" viewBox="0 0 32 32" width="32" height="32">

  <!-- Left page — Navy -->
  <path d="M2,29 L2,4 Q2,2 4,2 L16,3 L16,31 Q11,30 6,30 Q3,30 2,29 Z" fill="#1B3A6B"/>

  <!-- Right page — Gold -->
  <path d="M16,3 L28,2 Q30,2 30,4 L30,29 Q29,30 26,30 Q21,30 16,31 Z" fill="#C9A84C"/>

  <!-- Spine shadow -->
  <rect x="15" y="2" width="2" height="30" rx="0.5" fill="#0A1E3D" opacity="0.15"/>

  <!-- Page lines — left -->
  <rect x="4"  y="9"  width="9" height="1.5" rx="0.5" fill="#FFFFFF" opacity="0.5"/>
  <rect x="4"  y="13" width="9" height="1.5" rx="0.5" fill="#FFFFFF" opacity="0.5"/>
  <rect x="4"  y="17" width="7" height="1.5" rx="0.5" fill="#FFFFFF" opacity="0.5"/>
  <rect x="4"  y="21" width="8" height="1.5" rx="0.5" fill="#FFFFFF" opacity="0.4"/>

  <!-- Page lines — right -->
  <rect x="19" y="9"  width="9" height="1.5" rx="0.5" fill="#FFFFFF" opacity="0.5"/>
  <rect x="19" y="13" width="9" height="1.5" rx="0.5" fill="#FFFFFF" opacity="0.5"/>
  <rect x="19" y="17" width="7" height="1.5" rx="0.5" fill="#FFFFFF" opacity="0.5"/>
  <rect x="19" y="21" width="8" height="1.5" rx="0.5" fill="#FFFFFF" opacity="0.4"/>

</svg>
